<svg width="270" height="352" viewBox="0 0 270 352" fill="none" xmlns="http://www.w3.org/2000/svg">
<path d="M132.772 346.085L132.77 346.083C130.211 343.273 98.2839 307.97 67.0271 263.044C51.3971 240.579 36.0084 215.812 24.5444 191.575C13.0376 167.247 5.7041 143.903 5.7041 124.161C5.7041 58.8214 63.333 5 135 5C206.667 5 264.295 58.8213 264.296 124.161C264.296 144.519 256.948 168.181 245.445 192.614C233.98 216.967 218.591 241.667 202.96 263.989C171.701 308.63 139.772 343.34 137.216 346.099C136.738 346.615 135.94 347 135 347H135H134.999H134.999H134.999H134.999H134.998H134.998H134.998H134.998H134.997H134.997H134.997H134.997H134.996H134.996H134.996H134.996H134.995H134.995H134.995H134.994H134.994H134.994H134.994H134.993H134.993H134.993H134.993H134.992H134.992H134.992H134.992H134.991H134.991H134.991H134.991H134.99H134.99H134.99H134.99H134.989H134.989H134.989H134.989H134.988L134.988 347L134.988 347H134.988H134.987H134.987H134.987H134.987H134.986H134.986H134.986H134.986H134.985H134.985H134.985H134.984H134.984H134.984H134.984H134.983H134.983H134.983H134.983H134.982H134.982H134.982C134.036 346.994 133.243 346.603 132.772 346.085ZM131.274 336.846L135.019 341.153L138.795 336.873C151.26 322.749 181.118 287.75 207.888 247.411C221.273 227.242 233.953 205.639 243.302 184.568C252.62 163.566 258.8 142.718 258.8 124.161C258.8 60.4747 202.891 9.3263 135 9.3263C67.1088 9.3263 11.1998 60.4747 11.1998 124.161C11.1998 142.25 17.4019 162.845 26.7273 183.712C36.088 204.659 48.7824 226.285 62.1792 246.549C88.9747 287.08 118.848 322.558 131.274 336.846Z" fill="white" stroke="white" stroke-width="10"/>
<path d="M82.9045 121.833C82.9045 95.8492 105.902 74.0461 135 74.0461C164.098 74.0461 187.095 95.8492 187.095 121.833C187.095 147.816 164.098 169.619 135 169.619C105.902 169.619 82.9045 147.816 82.9045 121.833ZM88.4002 121.832C88.4002 146.163 109.677 165.292 135 165.292C160.321 165.292 181.6 146.163 181.6 121.832C181.6 97.5006 160.323 78.3715 135 78.3715C109.676 78.3715 88.4002 97.5006 88.4002 121.832Z" fill="white" stroke="white" stroke-width="10"/>
</svg>
